<?xml version="1.0" encoding="UTF-8"?>
<svg xmlns="http://www.w3.org/2000/svg" xmlns:xlink="http://www.w3.org/1999/xlink" width="400pt" height="320pt" viewBox="0 0 400 320" version="1.1">
<defs>
<clipPath id="clip1">
  <path d="M 22.699219 5.480469 L 315 5.480469 L 315 298 L 22.699219 298 Z M 22.699219 5.480469 "/>
</clipPath>
</defs>
<g id="surface1432" transform="rotate(270 100 160) scale(1,1.25)">
<rect x="0" y="0" width="320" height="320" style="fill:rgb(100%,100%,100%);fill-opacity:1;stroke:none;"/>
<rect x="0" y="0" width="320" height="320" style="fill:rgb(100%,100%,100%);fill-opacity:1;stroke:none;"/>
<path style="fill:none;stroke-width:1.066978;stroke-linecap:round;stroke-linejoin:round;stroke:rgb(100%,100%,100%);stroke-opacity:1;stroke-miterlimit:10;" d="M 0 320 L 320 320 L 320 0 L 0 0 Z M 0 320 "/>
<g clip-path="url(#clip1)" clip-rule="nonzero">
<path style=" stroke:none;fill-rule:nonzero;fill:rgb(92.156863%,92.156863%,92.156863%);fill-opacity:1;" d="M 22.699219 297.300781 L 314.519531 297.300781 L 314.519531 5.480469 L 22.699219 5.480469 Z M 22.699219 297.300781 "/>
</g>
<path style="fill:none;stroke-width:1.066978;stroke-linecap:butt;stroke-linejoin:round;stroke:rgb(100%,100%,100%);stroke-opacity:1;stroke-miterlimit:10;" d="M 168.609375 151.390625 L 255.796875 53.191406 "/>
<path style="fill:none;stroke-width:1.066978;stroke-linecap:butt;stroke-linejoin:round;stroke:rgb(100%,100%,100%);stroke-opacity:1;stroke-miterlimit:10;" d="M 168.609375 151.390625 L 276.144531 226.765625 "/>
<path style="fill:none;stroke-width:1.066978;stroke-linecap:butt;stroke-linejoin:round;stroke:rgb(100%,100%,100%);stroke-opacity:1;stroke-miterlimit:10;" d="M 168.609375 151.390625 L 105.804688 266.71875 "/>
<path style="fill:none;stroke-width:1.066978;stroke-linecap:butt;stroke-linejoin:round;stroke:rgb(100%,100%,100%);stroke-opacity:1;stroke-miterlimit:10;" d="M 168.609375 151.390625 L 46.851562 102.195312 "/>
<path style="fill:none;stroke-width:0.533489;stroke-linecap:butt;stroke-linejoin:round;stroke:rgb(100%,100%,100%);stroke-opacity:1;stroke-miterlimit:10;" d="M 168.609375 151.390625 L 255.796875 53.191406 "/>
<path style="fill:none;stroke-width:0.533489;stroke-linecap:butt;stroke-linejoin:round;stroke:rgb(100%,100%,100%);stroke-opacity:1;stroke-miterlimit:10;" d="M 168.609375 151.390625 L 299.035156 136.101562 "/>
<path style="fill:none;stroke-width:0.533489;stroke-linecap:butt;stroke-linejoin:round;stroke:rgb(100%,100%,100%);stroke-opacity:1;stroke-miterlimit:10;" d="M 168.609375 151.390625 L 276.144531 226.765625 "/>
<path style="fill:none;stroke-width:0.533489;stroke-linecap:butt;stroke-linejoin:round;stroke:rgb(100%,100%,100%);stroke-opacity:1;stroke-miterlimit:10;" d="M 168.609375 151.390625 L 198.597656 279.242188 "/>
<path style="fill:none;stroke-width:0.533489;stroke-linecap:butt;stroke-linejoin:round;stroke:rgb(100%,100%,100%);stroke-opacity:1;stroke-miterlimit:10;" d="M 168.609375 151.390625 L 105.804688 266.71875 "/>
<path style="fill:none;stroke-width:0.533489;stroke-linecap:butt;stroke-linejoin:round;stroke:rgb(100%,100%,100%);stroke-opacity:1;stroke-miterlimit:10;" d="M 168.609375 151.390625 L 44.988281 195.6875 "/>
<path style="fill:none;stroke-width:0.533489;stroke-linecap:butt;stroke-linejoin:round;stroke:rgb(100%,100%,100%);stroke-opacity:1;stroke-miterlimit:10;" d="M 168.609375 151.390625 L 46.851562 102.195312 "/>
<path style="fill:none;stroke-width:0.533489;stroke-linecap:butt;stroke-linejoin:round;stroke:rgb(100%,100%,100%);stroke-opacity:1;stroke-miterlimit:10;" d="M 168.609375 151.390625 L 110.453125 33.648438 "/>
<path style="fill:none;stroke-width:1.066978;stroke-linecap:butt;stroke-linejoin:round;stroke:rgb(100%,100%,100%);stroke-opacity:1;stroke-miterlimit:10;" d="M 168.609375 142.613281 L 169.167969 142.632812 L 169.722656 142.683594 L 170.269531 142.773438 L 170.8125 142.894531 L 171.347656 143.050781 L 171.871094 143.242188 L 172.382812 143.464844 L 172.878906 143.71875 L 173.355469 144.007812 L 173.8125 144.324219 L 174.25 144.667969 L 174.667969 145.039062 L 175.058594 145.433594 L 175.421875 145.855469 L 175.757812 146.300781 L 176.066406 146.761719 L 176.347656 147.246094 L 176.59375 147.746094 L 176.808594 148.257812 L 176.992188 148.785156 L 177.140625 149.320312 L 177.253906 149.867188 L 177.332031 150.417969 L 177.375 150.972656 L 177.386719 151.53125 L 177.359375 152.085938 L 177.296875 152.640625 L 177.199219 153.1875 L 177.070312 153.730469 L 176.902344 154.261719 L 176.707031 154.78125 L 176.472656 155.289062 L 176.210938 155.777344 L 175.917969 156.253906 L 175.59375 156.707031 L 175.242188 157.136719 L 174.863281 157.546875 L 174.460938 157.933594 L 174.035156 158.289062 L 173.585938 158.621094 L 173.117188 158.921875 L 172.632812 159.191406 L 172.128906 159.429688 L 171.613281 159.636719 L 171.082031 159.8125 L 170.542969 159.953125 L 169.996094 160.058594 L 169.445312 160.128906 L 168.886719 160.164062 L 168.332031 160.164062 L 167.773438 160.128906 L 167.222656 160.058594 L 166.675781 159.953125 L 166.136719 159.8125 L 165.609375 159.636719 L 165.089844 159.429688 L 164.585938 159.191406 L 164.101562 158.921875 L 163.632812 158.621094 L 163.183594 158.289062 L 162.757812 157.933594 L 162.355469 157.546875 L 161.976562 157.136719 L 161.625 156.707031 L 161.300781 156.253906 L 161.007812 155.777344 L 160.746094 155.289062 L 160.515625 154.78125 L 160.316406 154.261719 L 160.148438 153.730469 L 160.019531 153.1875 L 159.921875 152.640625 L 159.859375 152.085938 L 159.832031 151.53125 L 159.84375 150.972656 L 159.886719 150.417969 L 159.964844 149.867188 L 160.078125 149.320312 L 160.226562 148.785156 L 160.410156 148.257812 L 160.625 147.746094 L 160.871094 147.246094 L 161.152344 146.761719 L 161.460938 146.300781 L 161.796875 145.855469 L 162.160156 145.433594 L 162.550781 145.039062 L 162.96875 144.667969 L 163.40625 144.324219 L 163.863281 144.007812 L 164.34375 143.71875 L 164.835938 143.464844 L 165.347656 143.242188 L 165.871094 143.050781 L 166.40625 142.894531 L 166.949219 142.773438 L 167.5 142.683594 L 168.054688 142.632812 L 168.609375 142.613281 "/>
<path style="fill:none;stroke-width:1.066978;stroke-linecap:butt;stroke-linejoin:round;stroke:rgb(100%,100%,100%);stroke-opacity:1;stroke-miterlimit:10;" d="M 168.609375 107.828125 L 171.371094 107.917969 L 174.125 108.179688 L 176.855469 108.617188 L 179.550781 109.226562 L 182.203125 110.003906 L 184.800781 110.949219 L 187.332031 112.058594 L 189.789062 113.324219 L 192.160156 114.742188 L 194.4375 116.3125 L 196.609375 118.019531 L 198.671875 119.863281 L 200.609375 121.832031 L 202.417969 123.921875 L 204.09375 126.121094 L 205.625 128.421875 L 207.007812 130.816406 L 208.234375 133.292969 L 209.300781 135.84375 L 210.207031 138.457031 L 210.945312 141.121094 L 211.507812 143.824219 L 211.902344 146.5625 L 212.121094 149.316406 L 212.164062 152.082031 L 212.035156 154.84375 L 211.726562 157.589844 L 211.246094 160.3125 L 210.597656 163 L 209.777344 165.636719 L 208.789062 168.21875 L 207.640625 170.734375 L 206.335938 173.171875 L 204.878906 175.519531 L 203.273438 177.773438 L 201.53125 179.917969 L 199.65625 181.949219 L 197.65625 183.855469 L 195.539062 185.632812 L 193.3125 187.269531 L 190.984375 188.765625 L 188.570312 190.109375 L 186.074219 191.296875 L 183.507812 192.324219 L 180.882812 193.1875 L 178.207031 193.882812 L 175.492188 194.40625 L 172.75 194.753906 L 169.992188 194.929688 L 167.226562 194.929688 L 164.46875 194.753906 L 161.726562 194.40625 L 159.011719 193.882812 L 156.335938 193.1875 L 153.710938 192.324219 L 151.144531 191.296875 L 148.648438 190.109375 L 146.234375 188.765625 L 143.90625 187.269531 L 141.679688 185.632812 L 139.5625 183.855469 L 137.5625 181.949219 L 135.6875 179.917969 L 133.945312 177.773438 L 132.339844 175.519531 L 130.882812 173.171875 L 129.578125 170.734375 L 128.429688 168.21875 L 127.445312 165.636719 L 126.621094 163 L 125.972656 160.3125 L 125.492188 157.589844 L 125.183594 154.84375 L 125.054688 152.082031 L 125.097656 149.316406 L 125.316406 146.5625 L 125.710938 143.824219 L 126.277344 141.121094 L 127.011719 138.457031 L 127.917969 135.84375 L 128.984375 133.292969 L 130.210938 130.816406 L 131.59375 128.421875 L 133.125 126.121094 L 134.800781 123.921875 L 136.609375 121.832031 L 138.546875 119.863281 L 140.609375 118.019531 L 142.78125 116.3125 L 145.058594 114.742188 L 147.429688 113.324219 L 149.886719 112.058594 L 152.417969 110.949219 L 155.015625 110.003906 L 157.667969 109.226562 L 160.367188 108.617188 L 163.09375 108.179688 L 165.847656 107.917969 L 168.609375 107.828125 "/>
<path style="fill:none;stroke-width:1.066978;stroke-linecap:butt;stroke-linejoin:round;stroke:rgb(100%,100%,100%);stroke-opacity:1;stroke-miterlimit:10;" d="M 168.609375 73.042969 L 173.578125 73.203125 L 178.527344 73.675781 L 183.4375 74.460938 L 188.285156 75.554688 L 193.054688 76.957031 L 197.726562 78.65625 L 202.28125 80.648438 L 206.703125 82.925781 L 210.964844 85.480469 L 215.0625 88.300781 L 218.96875 91.375 L 222.675781 94.6875 L 226.164062 98.230469 L 229.417969 101.988281 L 232.429688 105.945312 L 235.183594 110.085938 L 237.667969 114.390625 L 239.875 118.84375 L 241.796875 123.429688 L 243.421875 128.128906 L 244.746094 132.917969 L 245.765625 137.785156 L 246.472656 142.707031 L 246.867188 147.664062 L 246.945312 152.632812 L 246.710938 157.597656 L 246.160156 162.539062 L 245.296875 167.4375 L 244.125 172.269531 L 242.648438 177.015625 L 240.871094 181.660156 L 238.808594 186.179688 L 236.460938 190.5625 L 233.839844 194.789062 L 230.953125 198.835938 L 227.820312 202.695312 L 224.445312 206.347656 L 220.847656 209.777344 L 217.039062 212.976562 L 213.035156 215.921875 L 208.855469 218.609375 L 204.511719 221.027344 L 200.019531 223.164062 L 195.40625 225.011719 L 190.683594 226.5625 L 185.871094 227.8125 L 180.988281 228.753906 L 176.058594 229.382812 L 171.09375 229.695312 L 166.125 229.695312 L 161.164062 229.382812 L 156.230469 228.753906 L 151.347656 227.8125 L 146.535156 226.5625 L 141.8125 225.011719 L 137.199219 223.164062 L 132.710938 221.027344 L 128.363281 218.609375 L 124.183594 215.921875 L 120.179688 212.976562 L 116.371094 209.777344 L 112.773438 206.347656 L 109.398438 202.695312 L 106.265625 198.835938 L 103.378906 194.789062 L 100.757812 190.5625 L 98.410156 186.179688 L 96.347656 181.660156 L 94.574219 177.015625 L 93.097656 172.269531 L 91.925781 167.4375 L 91.0625 162.539062 L 90.507812 157.597656 L 90.273438 152.632812 L 90.351562 147.664062 L 90.746094 142.707031 L 91.453125 137.785156 L 92.472656 132.917969 L 93.796875 128.128906 L 95.421875 123.429688 L 97.34375 118.84375 L 99.550781 114.390625 L 102.035156 110.085938 L 104.789062 105.945312 L 107.800781 101.988281 L 111.058594 98.230469 L 114.542969 94.6875 L 118.25 91.375 L 122.15625 88.300781 L 126.253906 85.480469 L 130.519531 82.925781 L 134.9375 80.648438 L 139.492188 78.65625 L 144.164062 76.957031 L 148.933594 75.554688 L 153.78125 74.460938 L 158.691406 73.675781 L 163.640625 73.203125 L 168.609375 73.042969 "/>
<path style="fill:none;stroke-width:1.066978;stroke-linecap:butt;stroke-linejoin:round;stroke:rgb(100%,100%,100%);stroke-opacity:1;stroke-miterlimit:10;" d="M 168.609375 38.257812 L 175.785156 38.488281 L 182.929688 39.167969 L 190.019531 40.304688 L 197.023438 41.886719 L 203.910156 43.90625 L 210.65625 46.363281 L 217.234375 49.242188 L 223.613281 52.53125 L 229.773438 56.21875 L 235.6875 60.289062 L 241.328125 64.726562 L 246.679688 69.515625 L 251.714844 74.628906 L 256.414062 80.054688 L 260.761719 85.769531 L 264.738281 91.746094 L 268.328125 97.960938 L 271.515625 104.394531 L 274.289062 111.015625 L 276.636719 117.800781 L 278.550781 124.71875 L 280.023438 131.746094 L 281.042969 138.851562 L 281.613281 146.007812 L 281.726562 153.183594 L 281.382812 160.355469 L 280.589844 167.492188 L 279.34375 174.558594 L 277.648438 181.535156 L 275.519531 188.390625 L 272.957031 195.097656 L 269.972656 201.628906 L 266.582031 207.957031 L 262.800781 214.054688 L 258.636719 219.902344 L 254.109375 225.476562 L 249.238281 230.75 L 244.042969 235.703125 L 238.542969 240.316406 L 232.761719 244.574219 L 226.722656 248.453125 L 220.449219 251.945312 L 213.96875 255.03125 L 207.300781 257.699219 L 200.480469 259.9375 L 193.535156 261.742188 L 186.484375 263.101562 L 179.363281 264.007812 L 172.199219 264.464844 L 165.019531 264.464844 L 157.855469 264.007812 L 150.734375 263.101562 L 143.6875 261.742188 L 136.738281 259.9375 L 129.917969 257.699219 L 123.253906 255.03125 L 116.769531 251.945312 L 110.496094 248.453125 L 104.457031 244.574219 L 98.675781 240.316406 L 93.175781 235.703125 L 87.980469 230.75 L 83.109375 225.476562 L 78.585938 219.902344 L 74.421875 214.054688 L 70.636719 207.957031 L 67.246094 201.628906 L 64.261719 195.097656 L 61.699219 188.390625 L 59.570312 181.535156 L 57.875 174.558594 L 56.628906 167.492188 L 55.835938 160.355469 L 55.492188 153.183594 L 55.605469 146.007812 L 56.175781 138.851562 L 57.199219 131.746094 L 58.667969 124.71875 L 60.582031 117.800781 L 62.929688 111.015625 L 65.703125 104.394531 L 68.890625 97.960938 L 72.480469 91.746094 L 76.457031 85.769531 L 80.804688 80.054688 L 85.503906 74.628906 L 90.539062 69.515625 L 95.890625 64.726562 L 101.535156 60.289062 L 107.445312 56.21875 L 113.605469 52.53125 L 119.988281 49.242188 L 126.5625 46.363281 L 133.308594 43.90625 L 140.195312 41.886719 L 147.199219 40.304688 L 154.289062 39.167969 L 161.433594 38.488281 L 168.609375 38.257812 "/>
<path style="fill:none;stroke-width:1.066978;stroke-linecap:butt;stroke-linejoin:round;stroke:rgb(100%,100%,100%);stroke-opacity:1;stroke-miterlimit:10;" d="M 168.609375 20.070312 L 176.9375 20.335938 L 185.234375 21.128906 L 193.460938 22.445312 L 201.589844 24.28125 L 209.585938 26.628906 L 217.417969 29.476562 L 225.050781 32.816406 L 232.457031 36.636719 L 239.605469 40.917969 L 246.46875 45.640625 L 253.019531 50.792969 L 259.230469 56.351562 L 265.074219 62.289062 L 270.53125 68.585938 L 275.578125 75.21875 L 280.195312 82.15625 L 284.363281 89.371094 L 288.0625 96.839844 L 291.28125 104.523438 L 294.007812 112.398438 L 296.226562 120.429688 L 297.933594 128.585938 L 299.121094 136.835938 L 299.78125 145.140625 L 299.914062 153.472656 L 299.515625 161.796875 L 298.59375 170.078125 L 297.144531 178.285156 L 295.179688 186.382812 L 292.707031 194.339844 L 289.734375 202.125 L 286.269531 209.707031 L 282.335938 217.050781 L 277.941406 224.132812 L 273.109375 230.917969 L 267.855469 237.386719 L 262.199219 243.507812 L 256.167969 249.257812 L 249.785156 254.613281 L 243.074219 259.554688 L 236.066406 264.0625 L 228.785156 268.113281 L 221.257812 271.695312 L 213.523438 274.789062 L 205.605469 277.390625 L 197.539062 279.484375 L 189.359375 281.0625 L 181.09375 282.117188 L 172.777344 282.644531 L 164.441406 282.644531 L 156.125 282.117188 L 147.859375 281.0625 L 139.679688 279.484375 L 131.613281 277.390625 L 123.695312 274.789062 L 115.960938 271.695312 L 108.433594 268.113281 L 101.152344 264.0625 L 94.144531 259.554688 L 87.433594 254.613281 L 81.050781 249.257812 L 75.019531 243.507812 L 69.363281 237.386719 L 64.109375 230.917969 L 59.277344 224.132812 L 54.882812 217.050781 L 50.949219 209.707031 L 47.484375 202.125 L 44.511719 194.339844 L 42.039062 186.382812 L 40.074219 178.285156 L 38.625 170.078125 L 37.703125 161.796875 L 37.304688 153.472656 L 37.4375 145.140625 L 38.097656 136.835938 L 39.285156 128.585938 L 40.992188 120.429688 L 43.210938 112.398438 L 45.9375 104.523438 L 49.15625 96.839844 L 52.855469 89.371094 L 57.023438 82.15625 L 61.640625 75.21875 L 66.6875 68.585938 L 72.144531 62.289062 L 77.988281 56.351562 L 84.199219 50.792969 L 90.75 45.640625 L 97.613281 40.917969 L 104.761719 36.636719 L 112.167969 32.816406 L 119.804688 29.476562 L 127.632812 26.628906 L 135.628906 24.28125 L 143.757812 22.445312 L 151.984375 21.128906 L 160.28125 20.335938 L 168.609375 20.070312 "/>
<path style="fill:none;stroke-width:2.133957;stroke-linecap:butt;stroke-linejoin:round;stroke:rgb(94.509804%,35.294118%,37.647059%);stroke-opacity:0.75;stroke-miterlimit:1;" d="M 168.609375 96.710938 L 170.941406 92.746094 L 173.589844 88.890625 L 176.480469 85.738281 L 179.625 82.722656 L 182.898438 80.480469 L 186.367188 78.390625 L 193.464844 75.921875 L 200.664062 75.078125 L 207.527344 76.121094 L 213.824219 78.746094 L 219.21875 82.886719 L 222.730469 89.15625 L 226.746094 94.398438 L 233.011719 97.589844 L 239.167969 101.402344 L 243.019531 107.105469 L 246.082031 113.265625 L 247.246094 120.183594 L 245.644531 127.707031 L 242.664062 134.929688 L 240.140625 138.453125 L 237.453125 141.746094 L 233.375 144.929688 L 229.160156 147.773438 L 224.933594 152.511719 L 224.53125 156.96875 L 225.847656 161.742188 L 228.664062 167.269531 L 230.96875 170.5625 L 233.105469 174.0625 L 235.976562 181.277344 L 238.234375 185.65625 L 240.25 190.257812 L 241.835938 194.972656 L 243.152344 199.871094 L 241.082031 207.191406 L 236.328125 212.691406 L 230.746094 217.347656 L 223.925781 220.351562 L 216.929688 222.554688 L 210.5625 225.179688 L 204.109375 227.296875 L 197.171875 227.757812 L 190.128906 226.695312 L 183.335938 224.472656 L 176.839844 220.046875 L 173.859375 217.261719 L 171.113281 214.351562 L 166.277344 210.003906 L 162.292969 204.085938 L 158.773438 200.210938 L 154.160156 201.949219 L 147.960938 206.59375 L 144.578125 208.605469 L 141 210.429688 L 136.480469 213.527344 L 131.675781 216.351562 L 127.117188 218.050781 L 122.371094 219.488281 L 116.207031 216.71875 L 111.273438 212.253906 L 104.585938 209.347656 L 100.796875 208.035156 L 97.015625 206.515625 L 90.808594 201.988281 L 84.929688 196.789062 L 82.164062 193.929688 L 79.496094 190.925781 L 78.128906 183.195312 L 79.410156 178.8125 L 80.894531 174.582031 L 82.34375 170.566406 L 83.976562 166.699219 L 87.339844 162.773438 L 90.878906 159.144531 L 94.792969 155.796875 L 98.84375 152.777344 L 99.714844 147.277344 L 95.445312 141.140625 L 93.328125 134.65625 L 92.519531 128 L 92.679688 121.257812 L 95.128906 115.230469 L 98.804688 109.84375 L 104.222656 105.773438 L 108.335938 104.984375 L 112.410156 104.445312 L 116.394531 104.121094 L 120.308594 104.039062 L 126.882812 103.410156 L 133.28125 103.570312 L 137.253906 101.015625 L 139.769531 95.617188 L 142.726562 89.769531 L 146.546875 84.398438 L 150.832031 78.300781 L 153.203125 74.929688 L 155.816406 71.636719 L 158.628906 68.117188 L 161.699219 64.699219 L 165.015625 61.03125 L 168.609375 57.496094 "/>
<path style="fill:none;stroke-width:2.133957;stroke-linecap:butt;stroke-linejoin:round;stroke:rgb(47.843137%,76.470588%,41.568627%);stroke-opacity:0.75;stroke-miterlimit:1;" d="M 168.609375 74.039062 L 174.996094 71.277344 L 181.695312 69.808594 L 188.457031 69.785156 L 195.042969 71.125 L 201.339844 73.472656 L 206.855469 77.425781 L 211.546875 82.40625 L 215.644531 87.722656 L 218.398438 94.140625 L 222.003906 99.046875 L 228.054688 101.734375 L 234.511719 104.699219 L 239.738281 109.054688 L 245.363281 113.617188 L 249.390625 119.332031 L 251.191406 126.003906 L 251.847656 132.890625 L 251.367188 139.796875 L 249.136719 146.582031 L 247.378906 152.957031 L 246.367188 159.144531 L 245.167969 165.238281 L 242.84375 171.019531 L 239.445312 176.289062 L 236.578125 181.542969 L 234.519531 187.148438 L 232.351562 192.84375 L 230.128906 198.757812 L 228.035156 205.183594 L 224.382812 210.59375 L 220.121094 215.609375 L 214.734375 219.320312 L 207.246094 219.347656 L 203.121094 218.136719 L 199.15625 216.710938 L 192.535156 215.359375 L 186.1875 212.894531 L 180.734375 211.566406 L 176.148438 214.273438 L 171.289062 218.746094 L 165.792969 222.21875 L 162.757812 224.832031 L 159.507812 227.308594 L 152.652344 230.585938 L 146.453125 228.917969 L 141.125 224.871094 L 135.632812 221.902344 L 129.964844 219.359375 L 124.929688 215.714844 L 120.429688 211.453125 L 116.375 206.835938 L 114.820312 200.082031 L 115.949219 195.378906 L 117.363281 190.847656 L 118.402344 186.960938 L 119.667969 183.21875 L 121.621094 176.882812 L 123.566406 171.375 L 120.839844 168.183594 L 116.9375 167.273438 L 113.039062 166.082031 L 106.5625 162.613281 L 100.824219 158.152344 L 95.289062 152.847656 L 93.316406 146.894531 L 94.398438 140.992188 L 94.910156 135.007812 L 94.058594 128.472656 L 93.914062 121.746094 L 94.960938 115.148438 L 96.25 108.324219 L 100.171875 102.90625 L 104.148438 101.757812 L 108.105469 100.847656 L 115.867188 99.6875 L 121.785156 97.550781 L 127.703125 96.019531 L 132.070312 92.683594 L 135.382812 87.132812 L 139.121094 81.183594 L 143.628906 75.535156 L 146.035156 72.402344 L 148.652344 69.34375 L 151.441406 66.183594 L 154.449219 63.117188 L 157.65625 60.019531 L 161.089844 57.042969 L 164.734375 53.949219 L 168.609375 50.996094 "/>
<path style="fill:none;stroke-width:2.133957;stroke-linecap:butt;stroke-linejoin:round;stroke:rgb(35.294118%,60.784314%,83.137255%);stroke-opacity:0.75;stroke-miterlimit:1;" d="M 168.609375 34.660156 L 171.605469 38.4375 L 174.398438 42.292969 L 176.992188 46.210938 L 179.4375 49.65625 L 181.707031 53.15625 L 183.800781 56.707031 L 186.769531 61.269531 L 189.398438 65.917969 L 191.914062 69.847656 L 194.148438 73.835938 L 196.339844 77.25 L 198.296875 80.710938 L 202.261719 86.304688 L 206.433594 90.621094 L 211.796875 92.933594 L 215.777344 92.585938 L 219.855469 92.464844 L 225.945312 95.183594 L 228.800781 101.109375 L 230.277344 107.699219 L 229.132812 115.371094 L 226.496094 119.984375 L 223.601562 124.328125 L 222.183594 130.128906 L 226.871094 133.480469 L 232.710938 137.140625 L 237.964844 141.675781 L 241.375 144.132812 L 244.695312 146.847656 L 248.933594 152.988281 L 252.242188 159.734375 L 253.949219 166.828125 L 251.425781 173.289062 L 248.199219 175.859375 L 244.902344 178.207031 L 239.804688 182.976562 L 237.273438 188.640625 L 234.605469 194.308594 L 229.539062 198.304688 L 222.996094 200.621094 L 217.90625 203.71875 L 214.011719 207.992188 L 210.367188 212.886719 L 207.019531 218.949219 L 203.34375 225.664062 L 198.019531 230.023438 L 191.96875 233.125 L 185.523438 235.328125 L 178.746094 235.949219 L 171.941406 235.097656 L 165.332031 233.722656 L 158.980469 231.726562 L 152.941406 229.140625 L 147.28125 226.023438 L 142.023438 222.476562 L 137.191406 218.570312 L 133.464844 213.203125 L 129.828125 208.507812 L 125.730469 209.429688 L 121.503906 210.113281 L 116.273438 211.570312 L 110.855469 212.695312 L 110.539062 208.316406 L 110.476562 204.011719 L 112.515625 200.566406 L 114.648438 197.199219 L 116.875 193.914062 L 119.1875 190.710938 L 121.589844 187.59375 L 124.316406 184.113281 L 127.160156 180.757812 L 130.117188 177.527344 L 133.183594 174.429688 L 136.855469 171.152344 L 140.644531 168.035156 L 144.542969 165.074219 L 148.542969 162.277344 L 151.886719 160.121094 L 155.289062 158.078125 L 158.753906 156.144531 L 162.273438 154.320312 L 165.851562 152.613281 L 168.609375 151.390625 L 162.039062 153.128906 L 157.425781 153.875 L 152.753906 154.257812 L 148.554688 154.742188 L 144.34375 155.117188 L 140.121094 155.382812 L 135.882812 155.535156 L 131.640625 155.574219 L 127.390625 155.5 L 123.09375 155.410156 L 118.792969 155.21875 L 114.492188 154.929688 L 110.191406 154.546875 L 105.894531 154.0625 L 101.597656 153.484375 L 97.3125 152.808594 L 92.359375 149.875 L 87.539062 146.546875 L 89.964844 140.371094 L 92.796875 134.539062 L 96.316406 132.277344 L 99.894531 130.265625 L 106 126.542969 L 103.699219 122.59375 L 101.621094 118.421875 L 98.601562 114.601562 L 95.738281 110.597656 L 93.042969 106.414062 L 91.527344 101.261719 L 90.308594 95.917969 L 89.289062 90.316406 L 88.59375 84.550781 L 89.035156 79.359375 L 89.765625 74.097656 L 94.007812 72.203125 L 98.277344 70.519531 L 102.351562 70.992188 L 106.347656 71.625 L 110.261719 72.410156 L 115.019531 72.46875 L 119.679688 72.777344 L 124.136719 73.171875 L 128.484375 73.789062 L 136.328125 74.535156 L 143.109375 73.960938 L 149.585938 73.1875 L 155.734375 71.121094 L 161.9375 67.65625 L 165.1875 65.378906 L 168.609375 63.234375 "/>
<path style="fill:none;stroke-width:2.133957;stroke-linecap:butt;stroke-linejoin:round;stroke:rgb(98.039216%,65.490196%,35.686275%);stroke-opacity:0.75;stroke-miterlimit:1;" d="M 168.609375 66.609375 L 175.210938 68.578125 L 181.546875 70.753906 L 187.65625 73.078125 L 193.589844 75.542969 L 199.351562 78.207031 L 205.003906 81.007812 L 210.554688 84 L 216.105469 87.101562 L 221.945312 90.0625 L 227.09375 94.058594 L 230.882812 99.371094 L 234.066406 105.015625 L 237.21875 110.554688 L 239.742188 116.386719 L 242.441406 122.089844 L 246.011719 127.59375 L 249.273438 133.460938 L 251.707031 139.75 L 253.984375 146.292969 L 254.332031 153.09375 L 252.183594 159.726562 L 249.25 165.976562 L 246.734375 172.046875 L 243.765625 177.808594 L 240.601562 183.328125 L 237.394531 188.707031 L 233.921875 193.867188 L 230.023438 198.675781 L 225.800781 203.164062 L 221.335938 207.359375 L 216.582031 211.199219 L 211.570312 214.660156 L 206.214844 217.53125 L 200.679688 219.964844 L 195.375 222.949219 L 190.089844 226.554688 L 184.382812 229.664062 L 178.34375 232.601562 L 171.953125 235.402344 L 165.234375 236.175781 L 158.539062 235.410156 L 152.039062 233.617188 L 146.070312 230.257812 L 140.875 225.542969 L 135.792969 221.566406 L 131.09375 217.375 L 126.390625 213.566406 L 120.957031 210.796875 L 115.050781 208.242188 L 109.074219 205.28125 L 102.148438 202.5625 L 96.195312 198.484375 L 91.773438 193.074219 L 88.191406 187.066406 L 86.402344 180.285156 L 87.246094 172.902344 L 88.105469 165.953125 L 88.742188 159.355469 L 89.613281 152.960938 L 89.839844 146.6875 L 89.480469 140.304688 L 90.25 133.972656 L 91.90625 127.8125 L 94.152344 121.84375 L 97.15625 116.226562 L 100.828125 111.050781 L 105.480469 106.667969 L 111.730469 103.878906 L 117.734375 101.515625 L 122.425781 98.289062 L 126.9375 94.980469 L 131.503906 91.777344 L 136.042969 88.410156 L 140.851562 85.308594 L 145.980469 82.671875 L 151.296875 80.21875 L 156.863281 78.175781 L 162.652344 76.644531 L 168.609375 75.542969 "/>
<path style="fill:none;stroke-width:2.133957;stroke-linecap:butt;stroke-linejoin:round;stroke:rgb(61.960784%,40.392157%,67.058824%);stroke-opacity:0.75;stroke-miterlimit:1;" d="M 168.609375 99.316406 L 173.230469 93.433594 L 178.625 88.96875 L 184.480469 86.148438 L 190.507812 84.898438 L 196.539062 84.902344 L 202.027344 86.761719 L 206.929688 89.824219 L 211.691406 93.074219 L 215.8125 97.113281 L 220.15625 100.859375 L 225.628906 103.757812 L 231.117188 107.105469 L 235.371094 111.65625 L 238.980469 116.761719 L 241.242188 122.566406 L 242.203125 128.765625 L 242.429688 134.980469 L 241.5625 141.171875 L 239.078125 147.183594 L 236.695312 152.746094 L 233.710938 157.882812 L 231.011719 162.679688 L 229.640625 167.527344 L 228.730469 172.523438 L 228.105469 177.785156 L 228.078125 183.652344 L 227.925781 189.964844 L 227.75 196.925781 L 227.902344 200.917969 L 227.824219 204.992188 L 225.671875 211.964844 L 221.558594 217.402344 L 216.75 222.289062 L 211.898438 227.527344 L 206.535156 232.484375 L 200.175781 235.785156 L 193.359375 238 L 186.117188 238.277344 L 182.261719 236.496094 L 178.578125 234.546875 L 175.003906 231.636719 L 171.679688 228.574219 L 165.71875 224.03125 L 163.0625 221.003906 L 160.636719 217.886719 L 156.152344 213.214844 L 150.921875 213.285156 L 144.597656 215.59375 L 138.230469 216.351562 L 130.867188 217.777344 L 123.386719 217.992188 L 117.746094 214.804688 L 113.0625 210.355469 L 106.601562 207.519531 L 102.5 206.613281 L 98.378906 205.46875 L 94.652344 203.785156 L 90.953125 201.894531 L 87.472656 199.679688 L 84.050781 197.265625 L 80.679688 194.660156 L 77.386719 191.859375 L 75.1875 188.464844 L 73.117188 184.957031 L 71.820312 181.144531 L 70.679688 177.28125 L 70.667969 173.160156 L 70.824219 169.078125 L 73.9375 164.652344 L 77.242188 160.503906 L 81.199219 156.609375 L 85.316406 153.046875 L 87.871094 146.570312 L 87.992188 140.097656 L 88.84375 133.660156 L 89.117188 126.953125 L 90.394531 120.351562 L 95.113281 115.222656 L 101.117188 111.21875 L 106.539062 107.414062 L 113.816406 105.621094 L 120.59375 104.320312 L 124.253906 100.386719 L 126.703125 94.667969 L 130.128906 89.5625 L 133.808594 84.089844 L 138.355469 79.367188 L 143.859375 76.230469 L 149.753906 73.863281 L 155.988281 72.714844 L 162.347656 72.828125 L 168.609375 74.039062 "/>
<path style="fill:none;stroke-width:2.133957;stroke-linecap:butt;stroke-linejoin:round;stroke:rgb(80.784314%,43.921569%,34.509804%);stroke-opacity:0.75;stroke-miterlimit:1;" d="M 168.609375 66.421875 L 175.242188 68.15625 L 181.613281 70.324219 L 187.6875 72.949219 L 193.449219 75.96875 L 198.898438 79.28125 L 203.816406 83.304688 L 208.332031 87.574219 L 213.238281 90.980469 L 218.890625 93.574219 L 223.90625 97.183594 L 227.957031 101.816406 L 231.449219 106.871094 L 234.066406 112.433594 L 235.558594 118.441406 L 237.421875 124.082031 L 239.199219 129.6875 L 241.058594 135.285156 L 244.320312 140.785156 L 248.636719 146.609375 L 251.390625 153.035156 L 253.875 159.894531 L 255.0625 167.027344 L 253.054688 173.71875 L 248.691406 179.539062 L 244.371094 185 L 239.234375 189.707031 L 233.960938 193.890625 L 229.582031 198.335938 L 225.324219 202.726562 L 221.035156 207.042969 L 217.152344 211.90625 L 212.746094 216.390625 L 207.191406 219.25 L 201.210938 221.105469 L 195.445312 223.136719 L 189.5625 224.703125 L 183.738281 226.476562 L 177.96875 229.476562 L 171.847656 232.75 L 165.28125 235.054688 L 158.210938 238.140625 L 150.859375 239.480469 L 144.152344 236.960938 L 138.3125 232.394531 L 132.941406 227.660156 L 128.925781 221.1875 L 125.324219 215.136719 L 120.347656 211.558594 L 114.941406 208.359375 L 111.554688 203.039062 L 109.699219 196.75 L 108.679688 190.367188 L 110.3125 183.019531 L 113.238281 175.957031 L 113.371094 170.808594 L 112.648438 166.1875 L 110.773438 161.851562 L 104.539062 157.78125 L 100.765625 155.441406 L 97.085938 152.8125 L 93.308594 146.894531 L 90.859375 140.5 L 90.027344 133.921875 L 91.191406 127.589844 L 93.234375 121.476562 L 95.644531 115.484375 L 99.140625 110.042969 L 102.519531 104.566406 L 105.460938 98.636719 L 108.925781 92.882812 L 113.1875 87.660156 L 117.960938 82.832031 L 123.871094 79.507812 L 130.601562 77.882812 L 137.285156 76.816406 L 143.71875 75.804688 L 150.140625 75.460938 L 156.464844 75.683594 L 162.628906 76.371094 L 168.609375 77.558594 "/>
</g>
</svg>
